<svg width="34" height="34" viewBox="0 0 34 34" fill="none" xmlns="http://www.w3.org/2000/svg">
<path d="M20.2539 17C20.2539 18.7971 18.7971 20.2539 17 20.2539C15.2029 20.2539 13.7461 18.7971 13.7461 17C13.7461 15.2029 15.2029 13.7461 17 13.7461C18.7971 13.7461 20.2539 15.2029 20.2539 17Z" fill="white"/>
<path d="M24.6097 11.2427C24.4533 10.8188 24.2037 10.4352 23.8795 10.1203C23.5646 9.79602 23.1812 9.54648 22.757 9.39006C22.4131 9.25647 21.8964 9.09746 20.9446 9.05414C19.9151 9.00719 19.6064 8.99707 16.9999 8.99707C14.3932 8.99707 14.0845 9.00693 13.0553 9.05388C12.1035 9.09746 11.5865 9.25647 11.2428 9.39006C10.8187 9.54648 10.4351 9.79602 10.1204 10.1203C9.79616 10.4352 9.54662 10.8186 9.38994 11.2427C9.25635 11.5867 9.09734 12.1036 9.05402 13.0554C9.00706 14.0847 8.99695 14.3934 8.99695 17.0001C8.99695 19.6065 9.00706 19.9152 9.05402 20.9447C9.09734 21.8965 9.25635 22.4132 9.38994 22.7572C9.54662 23.1813 9.7959 23.5647 10.1201 23.8796C10.4351 24.2038 10.8185 24.4534 11.2426 24.6098C11.5865 24.7437 12.1035 24.9027 13.0553 24.946C14.0845 24.9929 14.393 25.0028 16.9997 25.0028C19.6066 25.0028 19.9153 24.9929 20.9444 24.946C21.8961 24.9027 22.4131 24.7437 22.757 24.6098C23.6084 24.2814 24.2813 23.6085 24.6097 22.7572C24.7433 22.4132 24.9023 21.8965 24.9459 20.9447C24.9928 19.9152 25.0027 19.6065 25.0027 17.0001C25.0027 14.3934 24.9928 14.0847 24.9459 13.0554C24.9025 12.1036 24.7435 11.5867 24.6097 11.2427ZM16.9999 22.0124C14.2314 22.0124 11.987 19.7684 11.987 16.9998C11.987 14.2312 14.2314 11.9872 16.9999 11.9872C19.7682 11.9872 22.0126 14.2312 22.0126 16.9998C22.0126 19.7684 19.7682 22.0124 16.9999 22.0124ZM22.2108 12.9604C21.5638 12.9604 21.0393 12.4359 21.0393 11.789C21.0393 11.142 21.5638 10.6175 22.2108 10.6175C22.8577 10.6175 23.3822 11.142 23.3822 11.789C23.3819 12.4359 22.8577 12.9604 22.2108 12.9604Z" fill="white"/>
<path d="M17 0C7.61259 0 0 7.61259 0 17C0 26.3874 7.61259 34 17 34C26.3874 34 34 26.3874 34 17C34 7.61259 26.3874 0 17 0ZM26.7028 21.0246C26.6556 22.0637 26.4904 22.7732 26.2491 23.3942C25.742 24.7055 24.7055 25.742 23.3942 26.2491C22.7735 26.4904 22.0637 26.6554 21.0248 26.7028C19.9839 26.7503 19.6513 26.7617 17.0003 26.7617C14.3489 26.7617 14.0166 26.7503 12.9754 26.7028C11.9365 26.6554 11.2268 26.4904 10.6061 26.2491C9.95445 26.004 9.36458 25.6198 8.87691 25.1231C8.38042 24.6357 7.99625 24.0455 7.75111 23.3942C7.50987 22.7735 7.34464 22.0637 7.29742 21.0248C7.24944 19.9836 7.23828 19.6511 7.23828 17C7.23828 14.3489 7.24944 14.0164 7.29716 12.9754C7.34438 11.9363 7.50935 11.2268 7.7506 10.6058C7.99573 9.95445 8.38016 9.36432 8.87691 8.87691C9.36432 8.38016 9.95445 7.99599 10.6058 7.75085C11.2268 7.50961 11.9363 7.34464 12.9754 7.29716C14.0164 7.24969 14.3489 7.23828 17 7.23828C19.6511 7.23828 19.9836 7.24969 21.0246 7.29742C22.0637 7.34464 22.7732 7.50961 23.3942 7.7506C24.0455 7.99573 24.6357 8.38016 25.1234 8.87691C25.6198 9.36458 26.0043 9.95445 26.2491 10.6058C26.4906 11.2268 26.6556 11.9363 26.7031 12.9754C26.7506 14.0164 26.7617 14.3489 26.7617 17C26.7617 19.6511 26.7506 19.9836 26.7028 21.0246Z" fill="white"/>
</svg>
