<svg width="34" height="34" viewBox="0 0 34 34" fill="none" xmlns="http://www.w3.org/2000/svg">
<path d="M17 0C7.61259 0 0 7.61259 0 17C0 26.3874 7.61259 34 17 34C26.3874 34 34 26.3874 34 17C34 7.61259 26.3874 0 17 0ZM17.3603 26.8979C17.36 26.8979 17.3606 26.8979 17.3603 26.8979H17.3562C15.6532 26.8971 13.9798 26.4702 12.4937 25.6598L7.10002 27.0743L8.54358 21.8033C7.65306 20.2609 7.18459 18.511 7.18536 16.7183C7.1877 11.1101 11.7521 6.5475 17.3603 6.5475C20.0819 6.54854 22.6367 7.60793 24.5576 9.53033C26.4787 11.453 27.536 14.0086 27.535 16.7263C27.5327 22.3348 22.9677 26.8979 17.3603 26.8979Z" fill="white"/>
<path d="M17.3637 8.26562C12.6989 8.26562 8.90515 12.0578 8.90308 16.7192C8.90256 18.3166 9.34976 19.8722 10.1962 21.2182L10.3972 21.5381L9.54276 24.6579L12.7435 23.8184L13.0524 24.0016C14.3507 24.772 15.8392 25.1795 17.3567 25.18H17.36C22.0212 25.18 25.8149 21.3876 25.817 16.7259C25.8177 14.4668 24.9389 12.3429 23.3423 10.745C21.7457 9.14706 19.6222 8.2664 17.3637 8.26562ZM22.3379 20.3539C22.126 20.9474 21.1104 21.4893 20.622 21.5624C20.1838 21.6278 19.6298 21.655 19.0207 21.4618C18.6513 21.3445 18.1779 21.1881 17.5712 20.9264C15.021 19.8255 13.3554 17.2585 13.2283 17.0888C13.1012 16.9192 12.1902 15.7106 12.1902 14.4596C12.1902 13.2087 12.847 12.5937 13.0799 12.3395C13.3131 12.085 13.5886 12.0215 13.758 12.0215C13.9274 12.0215 14.097 12.023 14.2452 12.0303C14.4013 12.0381 14.6109 11.9709 14.8171 12.4666C15.0291 12.9755 15.5375 14.2264 15.601 14.3535C15.6646 14.4808 15.7069 14.6292 15.6223 14.7989C15.5375 14.9685 15.2558 15.3345 14.9868 15.6681C14.8739 15.8079 14.7269 15.9324 14.8752 16.1869C15.0234 16.4411 15.5339 17.2735 16.2895 17.9474C17.2607 18.8133 18.0799 19.0815 18.3341 19.2089C18.588 19.336 18.7364 19.3147 18.8848 19.1454C19.0329 18.9757 19.5203 18.4032 19.6897 18.1487C19.8591 17.8943 20.0287 17.9368 20.2617 18.0216C20.4949 18.1062 21.7447 18.7212 21.9989 18.8483C22.2531 18.9757 22.4225 19.0393 22.486 19.1454C22.5498 19.2514 22.5498 19.7601 22.3379 20.3539Z" fill="white"/>
</svg>
